<svg width="918" height="192" viewBox="0 0 918 192" fill="none" xmlns="http://www.w3.org/2000/svg">
<rect width="918" height="192" rx="24" fill="white"/>
<g clip-path="url(#clip0_1_7)">
<rect x="76" y="86" width="48" height="20" rx="10" fill="#F59E2B"/>
<rect x="72" y="56" width="20" height="80" rx="10" fill="#2E3DB5"/>
<rect x="72" y="56" width="64" height="20" rx="10" fill="#2E3DB5"/>
<g clip-path="url(#clip1_1_7)">
<path d="M185.989 70.3722V63.2727H219.438V70.3722H206.969V104H198.457V70.3722H185.989ZM227.941 104.577C225.992 104.577 224.255 104.239 222.731 103.562C221.206 102.873 220 101.859 219.111 100.52C218.236 99.1676 217.799 97.4839 217.799 95.4688C217.799 93.7718 218.11 92.3466 218.734 91.1932C219.357 90.0398 220.205 89.1117 221.279 88.4091C222.353 87.7064 223.573 87.1761 224.938 86.8182C226.317 86.4602 227.762 86.2083 229.273 86.0625C231.05 85.8769 232.482 85.7045 233.569 85.5455C234.656 85.3731 235.445 85.1212 235.935 84.7898C236.426 84.4583 236.671 83.9678 236.671 83.3182V83.1989C236.671 81.9394 236.273 80.965 235.478 80.2756C234.696 79.5862 233.582 79.2415 232.137 79.2415C230.612 79.2415 229.399 79.5795 228.498 80.2557C227.596 80.9186 227 81.7538 226.708 82.7614L218.873 82.125C219.27 80.2689 220.053 78.6648 221.219 77.3125C222.386 75.947 223.891 74.8996 225.734 74.1705C227.59 73.428 229.737 73.0568 232.177 73.0568C233.874 73.0568 235.498 73.2557 237.049 73.6534C238.613 74.0511 239.999 74.6676 241.205 75.5028C242.425 76.3381 243.386 77.4119 244.089 78.7244C244.791 80.0237 245.143 81.5814 245.143 83.3977V104H237.109V99.7642H236.87C236.379 100.719 235.723 101.561 234.901 102.29C234.079 103.006 233.091 103.569 231.938 103.98C230.785 104.378 229.452 104.577 227.941 104.577ZM230.367 98.7301C231.613 98.7301 232.714 98.4848 233.668 97.9943C234.623 97.4905 235.372 96.8144 235.915 95.9659C236.459 95.1174 236.731 94.1562 236.731 93.0824V89.8409C236.466 90.0133 236.101 90.1723 235.637 90.3182C235.186 90.4508 234.676 90.5767 234.106 90.696C233.536 90.8021 232.966 90.9015 232.395 90.9943C231.825 91.0739 231.308 91.1468 230.844 91.2131C229.85 91.3589 228.982 91.5909 228.239 91.9091C227.497 92.2273 226.92 92.6581 226.509 93.2017C226.098 93.732 225.893 94.3949 225.893 95.1903C225.893 96.3438 226.31 97.2254 227.145 97.8352C227.994 98.4318 229.068 98.7301 230.367 98.7301ZM275.73 82.1648L267.974 82.642C267.842 81.9792 267.557 81.3826 267.119 80.8523C266.682 80.3087 266.105 79.8778 265.389 79.5597C264.686 79.2282 263.844 79.0625 262.863 79.0625C261.551 79.0625 260.444 79.3409 259.542 79.8977C258.641 80.4413 258.19 81.1705 258.19 82.0852C258.19 82.8144 258.482 83.4309 259.065 83.9347C259.648 84.4384 260.649 84.8428 262.068 85.1477L267.596 86.2614C270.566 86.8712 272.78 87.8523 274.238 89.2045C275.697 90.5568 276.426 92.3333 276.426 94.5341C276.426 96.536 275.836 98.2926 274.656 99.804C273.489 101.315 271.885 102.495 269.843 103.344C267.815 104.179 265.475 104.597 262.824 104.597C258.78 104.597 255.558 103.755 253.159 102.071C250.772 100.374 249.374 98.0672 248.963 95.1506L257.295 94.7131C257.547 95.946 258.157 96.8873 259.125 97.5369C260.093 98.1733 261.332 98.4915 262.843 98.4915C264.328 98.4915 265.521 98.2064 266.423 97.6364C267.338 97.053 267.802 96.304 267.815 95.3892C267.802 94.6203 267.477 93.9905 266.841 93.5C266.204 92.9962 265.223 92.6117 263.897 92.3466L258.608 91.2926C255.625 90.696 253.404 89.6619 251.946 88.1903C250.501 86.7187 249.778 84.8428 249.778 82.5625C249.778 80.6004 250.308 78.91 251.369 77.4915C252.443 76.0729 253.948 74.9792 255.883 74.2102C257.832 73.4413 260.112 73.0568 262.724 73.0568C266.582 73.0568 269.618 73.8722 271.832 75.5028C274.059 77.1335 275.359 79.3542 275.73 82.1648ZM288.037 95.2102L288.056 85.0483H289.289L299.073 73.4545H308.798L295.653 88.8068H293.644L288.037 95.2102ZM280.36 104V63.2727H288.832V104H280.36ZM299.451 104L290.463 90.696L296.11 84.7102L309.375 104H299.451Z" fill="#0F1729"/>
<path d="M311.713 104V63.2727H338.679V70.3722H320.324V80.0767H336.889V87.1761H320.324V104H311.713ZM351.384 63.2727V104H342.912V63.2727H351.384ZM370.571 104.597C367.482 104.597 364.81 103.94 362.557 102.628C360.316 101.302 358.586 99.4593 357.366 97.0994C356.147 94.7263 355.537 91.9754 355.537 88.8466C355.537 85.6913 356.147 82.9337 357.366 80.5739C358.586 78.2008 360.316 76.358 362.557 75.0455C364.81 73.7197 367.482 73.0568 370.571 73.0568C373.66 73.0568 376.325 73.7197 378.565 75.0455C380.819 76.358 382.556 78.2008 383.775 80.5739C384.995 82.9337 385.605 85.6913 385.605 88.8466C385.605 91.9754 384.995 94.7263 383.775 97.0994C382.556 99.4593 380.819 101.302 378.565 102.628C376.325 103.94 373.66 104.597 370.571 104.597ZM370.611 98.0341C372.016 98.0341 373.189 97.6364 374.131 96.8409C375.072 96.0322 375.781 94.9318 376.258 93.5398C376.749 92.1477 376.994 90.5634 376.994 88.7869C376.994 87.0104 376.749 85.4261 376.258 84.0341C375.781 82.642 375.072 81.5417 374.131 80.733C373.189 79.9242 372.016 79.5199 370.611 79.5199C369.192 79.5199 367.999 79.9242 367.031 80.733C366.077 81.5417 365.354 82.642 364.864 84.0341C364.386 85.4261 364.148 87.0104 364.148 88.7869C364.148 90.5634 364.386 92.1477 364.864 93.5398C365.354 94.9318 366.077 96.0322 367.031 96.8409C367.999 97.6364 369.192 98.0341 370.611 98.0341ZM394.973 104L386.661 73.4545H395.232L399.965 93.9773H400.243L405.175 73.4545H413.587L418.598 93.858H418.857L423.51 73.4545H432.062L423.769 104H414.8L409.55 84.7898H409.172L403.922 104H394.973Z" fill="#2E3DB5"/>
<path d="M185.321 138V127.091H189.007C189.863 127.091 190.563 127.245 191.106 127.554C191.653 127.86 192.058 128.273 192.32 128.795C192.583 129.317 192.714 129.9 192.714 130.543C192.714 131.185 192.583 131.77 192.32 132.295C192.061 132.821 191.66 133.24 191.116 133.552C190.573 133.861 189.877 134.016 189.028 134.016H186.386V132.844H188.986C189.572 132.844 190.042 132.743 190.397 132.54C190.752 132.338 191.01 132.064 191.17 131.72C191.333 131.372 191.415 130.979 191.415 130.543C191.415 130.106 191.333 129.715 191.17 129.371C191.01 129.026 190.751 128.756 190.392 128.561C190.033 128.362 189.558 128.263 188.964 128.263H186.642V138H185.321ZM194.672 138V129.818H195.887V131.054H195.972C196.121 130.649 196.391 130.321 196.781 130.069C197.172 129.816 197.612 129.69 198.102 129.69C198.195 129.69 198.31 129.692 198.449 129.696C198.587 129.699 198.692 129.705 198.763 129.712V130.99C198.72 130.979 198.623 130.963 198.47 130.942C198.321 130.917 198.163 130.905 197.996 130.905C197.598 130.905 197.243 130.988 196.931 131.155C196.622 131.319 196.377 131.546 196.195 131.837C196.018 132.125 195.929 132.453 195.929 132.822V138H194.672ZM203.328 138.17C202.589 138.17 201.941 137.995 201.384 137.643C200.83 137.292 200.396 136.8 200.084 136.168C199.775 135.536 199.621 134.797 199.621 133.952C199.621 133.099 199.775 132.355 200.084 131.72C200.396 131.084 200.83 130.591 201.384 130.239C201.941 129.887 202.589 129.712 203.328 129.712C204.067 129.712 204.713 129.887 205.267 130.239C205.824 130.591 206.258 131.084 206.567 131.72C206.879 132.355 207.035 133.099 207.035 133.952C207.035 134.797 206.879 135.536 206.567 136.168C206.258 136.8 205.824 137.292 205.267 137.643C204.713 137.995 204.067 138.17 203.328 138.17ZM203.328 137.041C203.889 137.041 204.351 136.897 204.713 136.61C205.075 136.322 205.343 135.944 205.517 135.475C205.691 135.006 205.778 134.499 205.778 133.952C205.778 133.405 205.691 132.895 205.517 132.423C205.343 131.951 205.075 131.569 204.713 131.278C204.351 130.987 203.889 130.841 203.328 130.841C202.767 130.841 202.305 130.987 201.943 131.278C201.581 131.569 201.313 131.951 201.139 132.423C200.965 132.895 200.878 133.405 200.878 133.952C200.878 134.499 200.965 135.006 201.139 135.475C201.313 135.944 201.581 136.322 201.943 136.61C202.305 136.897 202.767 137.041 203.328 137.041ZM208.954 129.818H210.211V138.597C210.211 139.101 210.124 139.538 209.95 139.907C209.78 140.276 209.521 140.562 209.173 140.765C208.828 140.967 208.393 141.068 207.868 141.068C207.825 141.068 207.782 141.068 207.74 141.068C207.697 141.068 207.655 141.068 207.612 141.068V139.896C207.655 139.896 207.694 139.896 207.729 139.896C207.765 139.896 207.804 139.896 207.846 139.896C208.23 139.896 208.51 139.783 208.688 139.555C208.866 139.332 208.954 139.012 208.954 138.597V129.818ZM209.572 128.455C209.327 128.455 209.116 128.371 208.938 128.204C208.764 128.037 208.677 127.837 208.677 127.602C208.677 127.368 208.764 127.167 208.938 127C209.116 126.833 209.327 126.75 209.572 126.75C209.817 126.75 210.027 126.833 210.201 127C210.378 127.167 210.467 127.368 210.467 127.602C210.467 127.837 210.378 128.037 210.201 128.204C210.027 128.371 209.817 128.455 209.572 128.455ZM215.944 138.17C215.156 138.17 214.476 137.996 213.904 137.648C213.336 137.297 212.897 136.807 212.588 136.178C212.283 135.546 212.13 134.811 212.13 133.973C212.13 133.135 212.283 132.396 212.588 131.757C212.897 131.114 213.327 130.614 213.877 130.255C214.431 129.893 215.078 129.712 215.816 129.712C216.243 129.712 216.663 129.783 217.079 129.925C217.494 130.067 217.873 130.298 218.213 130.617C218.554 130.933 218.826 131.352 219.028 131.874C219.231 132.396 219.332 133.039 219.332 133.803V134.335H213.025V133.249H218.054C218.054 132.787 217.961 132.375 217.777 132.013C217.596 131.651 217.336 131.365 216.999 131.155C216.665 130.946 216.271 130.841 215.816 130.841C215.316 130.841 214.882 130.965 214.517 131.214C214.154 131.459 213.876 131.778 213.68 132.173C213.485 132.567 213.387 132.989 213.387 133.44V134.165C213.387 134.783 213.494 135.306 213.707 135.736C213.924 136.162 214.224 136.487 214.607 136.711C214.991 136.931 215.436 137.041 215.944 137.041C216.275 137.041 216.573 136.995 216.839 136.903C217.109 136.807 217.342 136.665 217.537 136.477C217.732 136.285 217.883 136.047 217.99 135.763L219.204 136.104C219.076 136.516 218.862 136.878 218.56 137.19C218.258 137.499 217.885 137.741 217.441 137.915C216.997 138.085 216.498 138.17 215.944 138.17ZM224.568 138.17C223.801 138.17 223.141 137.989 222.587 137.627C222.033 137.265 221.607 136.766 221.308 136.13C221.01 135.495 220.861 134.768 220.861 133.952C220.861 133.121 221.013 132.387 221.319 131.752C221.628 131.113 222.058 130.614 222.608 130.255C223.162 129.893 223.808 129.712 224.547 129.712C225.122 129.712 225.641 129.818 226.102 130.031C226.564 130.244 226.942 130.543 227.237 130.926C227.532 131.31 227.714 131.757 227.786 132.268H226.528C226.433 131.896 226.219 131.565 225.889 131.278C225.563 130.987 225.122 130.841 224.568 130.841C224.078 130.841 223.648 130.969 223.279 131.224C222.913 131.477 222.627 131.833 222.422 132.295C222.219 132.753 222.118 133.291 222.118 133.909C222.118 134.541 222.217 135.092 222.416 135.56C222.619 136.029 222.903 136.393 223.268 136.652C223.638 136.912 224.071 137.041 224.568 137.041C224.895 137.041 225.191 136.984 225.458 136.871C225.724 136.757 225.95 136.594 226.134 136.381C226.319 136.168 226.45 135.912 226.528 135.614H227.786C227.714 136.097 227.539 136.532 227.258 136.919C226.981 137.302 226.614 137.608 226.156 137.835C225.701 138.059 225.172 138.17 224.568 138.17ZM233.181 129.818V130.884H228.941V129.818H233.181ZM230.177 127.858H231.434V135.656C231.434 136.011 231.486 136.278 231.589 136.455C231.695 136.629 231.83 136.746 231.994 136.807C232.161 136.864 232.336 136.892 232.521 136.892C232.659 136.892 232.773 136.885 232.862 136.871C232.951 136.853 233.022 136.839 233.075 136.828L233.331 137.957C233.245 137.989 233.126 138.021 232.974 138.053C232.821 138.089 232.627 138.107 232.393 138.107C232.038 138.107 231.69 138.03 231.349 137.877C231.012 137.725 230.731 137.492 230.507 137.18C230.287 136.867 230.177 136.473 230.177 135.997V127.858ZM240.721 131.651L239.592 131.97C239.521 131.782 239.416 131.599 239.278 131.422C239.143 131.24 238.958 131.091 238.724 130.974C238.49 130.857 238.189 130.798 237.824 130.798C237.323 130.798 236.906 130.914 236.572 131.145C236.242 131.372 236.077 131.661 236.077 132.013C236.077 132.325 236.19 132.572 236.417 132.753C236.645 132.934 237 133.085 237.483 133.206L238.697 133.504C239.429 133.682 239.974 133.953 240.333 134.319C240.691 134.681 240.871 135.148 240.871 135.72C240.871 136.189 240.736 136.608 240.466 136.977C240.199 137.347 239.827 137.638 239.347 137.851C238.868 138.064 238.31 138.17 237.675 138.17C236.84 138.17 236.149 137.989 235.602 137.627C235.056 137.265 234.709 136.736 234.564 136.04L235.757 135.741C235.871 136.182 236.085 136.512 236.401 136.732C236.721 136.952 237.138 137.062 237.653 137.062C238.239 137.062 238.704 136.938 239.049 136.69C239.397 136.437 239.571 136.136 239.571 135.784C239.571 135.5 239.471 135.262 239.273 135.07C239.074 134.875 238.768 134.729 238.356 134.634L236.993 134.314C236.243 134.136 235.693 133.861 235.341 133.488C234.993 133.112 234.819 132.641 234.819 132.077C234.819 131.615 234.949 131.207 235.208 130.852C235.471 130.496 235.828 130.218 236.279 130.015C236.733 129.813 237.248 129.712 237.824 129.712C238.633 129.712 239.269 129.889 239.731 130.244C240.196 130.599 240.526 131.068 240.721 131.651ZM246.982 138V129.818H248.196V131.097H248.303C248.473 130.66 248.748 130.321 249.128 130.079C249.508 129.834 249.965 129.712 250.497 129.712C251.037 129.712 251.486 129.834 251.845 130.079C252.207 130.321 252.489 130.66 252.692 131.097H252.777C252.987 130.674 253.301 130.338 253.72 130.09C254.139 129.838 254.641 129.712 255.227 129.712C255.959 129.712 256.557 129.941 257.022 130.399C257.488 130.853 257.72 131.562 257.72 132.524V138H256.463V132.524C256.463 131.92 256.298 131.489 255.968 131.23C255.638 130.971 255.249 130.841 254.801 130.841C254.226 130.841 253.78 131.015 253.464 131.363C253.148 131.707 252.99 132.144 252.99 132.673V138H251.712V132.396C251.712 131.931 251.561 131.556 251.259 131.272C250.957 130.985 250.568 130.841 250.092 130.841C249.766 130.841 249.46 130.928 249.176 131.102C248.896 131.276 248.668 131.517 248.494 131.826C248.324 132.132 248.239 132.485 248.239 132.886V138H246.982ZM263.343 138.17C262.604 138.17 261.956 137.995 261.398 137.643C260.844 137.292 260.411 136.8 260.099 136.168C259.79 135.536 259.635 134.797 259.635 133.952C259.635 133.099 259.79 132.355 260.099 131.72C260.411 131.084 260.844 130.591 261.398 130.239C261.956 129.887 262.604 129.712 263.343 129.712C264.081 129.712 264.728 129.887 265.282 130.239C265.839 130.591 266.272 131.084 266.581 131.72C266.894 132.355 267.05 133.099 267.05 133.952C267.05 134.797 266.894 135.536 266.581 136.168C266.272 136.8 265.839 137.292 265.282 137.643C264.728 137.995 264.081 138.17 263.343 138.17ZM263.343 137.041C263.904 137.041 264.365 136.897 264.728 136.61C265.09 136.322 265.358 135.944 265.532 135.475C265.706 135.006 265.793 134.499 265.793 133.952C265.793 133.405 265.706 132.895 265.532 132.423C265.358 131.951 265.09 131.569 264.728 131.278C264.365 130.987 263.904 130.841 263.343 130.841C262.782 130.841 262.32 130.987 261.958 131.278C261.595 131.569 261.327 131.951 261.153 132.423C260.979 132.895 260.892 133.405 260.892 133.952C260.892 134.499 260.979 135.006 261.153 135.475C261.327 135.944 261.595 136.322 261.958 136.61C262.32 136.897 262.782 137.041 263.343 137.041ZM275.366 129.818L272.341 138H271.062L268.037 129.818H269.4L271.659 136.338H271.744L274.003 129.818H275.366ZM280.163 138.17C279.375 138.17 278.695 137.996 278.123 137.648C277.555 137.297 277.116 136.807 276.807 136.178C276.502 135.546 276.349 134.811 276.349 133.973C276.349 133.135 276.502 132.396 276.807 131.757C277.116 131.114 277.546 130.614 278.096 130.255C278.65 129.893 279.297 129.712 280.035 129.712C280.461 129.712 280.882 129.783 281.298 129.925C281.713 130.067 282.091 130.298 282.432 130.617C282.773 130.933 283.045 131.352 283.247 131.874C283.45 132.396 283.551 133.039 283.551 133.803V134.335H277.244V133.249H282.272C282.272 132.787 282.18 132.375 281.995 132.013C281.814 131.651 281.555 131.365 281.218 131.155C280.884 130.946 280.49 130.841 280.035 130.841C279.534 130.841 279.101 130.965 278.735 131.214C278.373 131.459 278.094 131.778 277.899 132.173C277.704 132.567 277.606 132.989 277.606 133.44V134.165C277.606 134.783 277.713 135.306 277.926 135.736C278.142 136.162 278.442 136.487 278.826 136.711C279.21 136.931 279.655 137.041 280.163 137.041C280.493 137.041 280.792 136.995 281.058 136.903C281.328 136.807 281.56 136.665 281.756 136.477C281.951 136.285 282.102 136.047 282.208 135.763L283.423 136.104C283.295 136.516 283.08 136.878 282.778 137.19C282.477 137.499 282.104 137.741 281.66 137.915C281.216 138.085 280.717 138.17 280.163 138.17ZM289.852 138V127.091H291.109V131.118H291.216C291.308 130.976 291.436 130.795 291.599 130.575C291.766 130.351 292.004 130.152 292.313 129.978C292.626 129.8 293.048 129.712 293.581 129.712C294.27 129.712 294.877 129.884 295.403 130.228C295.928 130.573 296.338 131.061 296.633 131.693C296.928 132.325 297.075 133.071 297.075 133.93C297.075 134.797 296.928 135.548 296.633 136.184C296.338 136.816 295.93 137.306 295.408 137.654C294.886 137.998 294.284 138.17 293.602 138.17C293.077 138.17 292.656 138.083 292.34 137.909C292.024 137.732 291.781 137.531 291.61 137.308C291.44 137.08 291.308 136.892 291.216 136.743H291.067V138H289.852ZM291.088 133.909C291.088 134.527 291.179 135.072 291.36 135.544C291.541 136.013 291.805 136.381 292.153 136.647C292.501 136.91 292.928 137.041 293.432 137.041C293.957 137.041 294.396 136.903 294.748 136.626C295.103 136.345 295.369 135.969 295.547 135.496C295.728 135.021 295.818 134.491 295.818 133.909C295.818 133.334 295.729 132.815 295.552 132.354C295.378 131.888 295.113 131.521 294.758 131.251C294.407 130.978 293.964 130.841 293.432 130.841C292.92 130.841 292.491 130.971 292.143 131.23C291.795 131.485 291.532 131.844 291.354 132.306C291.177 132.764 291.088 133.298 291.088 133.909ZM302.429 138.17C301.64 138.17 300.96 137.996 300.388 137.648C299.82 137.297 299.382 136.807 299.073 136.178C298.767 135.546 298.615 134.811 298.615 133.973C298.615 133.135 298.767 132.396 299.073 131.757C299.382 131.114 299.811 130.614 300.362 130.255C300.916 129.893 301.562 129.712 302.301 129.712C302.727 129.712 303.148 129.783 303.563 129.925C303.979 130.067 304.357 130.298 304.698 130.617C305.039 130.933 305.31 131.352 305.513 131.874C305.715 132.396 305.816 133.039 305.816 133.803V134.335H299.51V133.249H304.538C304.538 132.787 304.446 132.375 304.261 132.013C304.08 131.651 303.821 131.365 303.483 131.155C303.15 130.946 302.755 130.841 302.301 130.841C301.8 130.841 301.367 130.965 301.001 131.214C300.639 131.459 300.36 131.778 300.165 132.173C299.969 132.567 299.872 132.989 299.872 133.44V134.165C299.872 134.783 299.978 135.306 300.191 135.736C300.408 136.162 300.708 136.487 301.092 136.711C301.475 136.931 301.921 137.041 302.429 137.041C302.759 137.041 303.057 136.995 303.324 136.903C303.593 136.807 303.826 136.665 304.021 136.477C304.217 136.285 304.368 136.047 304.474 135.763L305.689 136.104C305.561 136.516 305.346 136.878 305.044 137.19C304.742 137.499 304.369 137.741 303.925 137.915C303.482 138.085 302.983 138.17 302.429 138.17ZM311.287 129.818V130.884H307.047V129.818H311.287ZM308.283 127.858H309.54V135.656C309.54 136.011 309.591 136.278 309.694 136.455C309.801 136.629 309.936 136.746 310.099 136.807C310.266 136.864 310.442 136.892 310.626 136.892C310.765 136.892 310.879 136.885 310.967 136.871C311.056 136.853 311.127 136.839 311.18 136.828L311.436 137.957C311.351 137.989 311.232 138.021 311.079 138.053C310.926 138.089 310.733 138.107 310.499 138.107C310.143 138.107 309.795 138.03 309.455 137.877C309.117 137.725 308.837 137.492 308.613 137.18C308.393 136.867 308.283 136.473 308.283 135.997V127.858ZM316.736 129.818V130.884H312.496V129.818H316.736ZM313.732 127.858H314.989V135.656C314.989 136.011 315.04 136.278 315.143 136.455C315.25 136.629 315.385 136.746 315.548 136.807C315.715 136.864 315.891 136.892 316.076 136.892C316.214 136.892 316.328 136.885 316.417 136.871C316.505 136.853 316.576 136.839 316.63 136.828L316.885 137.957C316.8 137.989 316.681 138.021 316.528 138.053C316.376 138.089 316.182 138.107 315.948 138.107C315.593 138.107 315.245 138.03 314.904 137.877C314.566 137.725 314.286 137.492 314.062 137.18C313.842 136.867 313.732 136.473 313.732 135.997V127.858ZM321.97 138.17C321.181 138.17 320.501 137.996 319.93 137.648C319.361 137.297 318.923 136.807 318.614 136.178C318.308 135.546 318.156 134.811 318.156 133.973C318.156 133.135 318.308 132.396 318.614 131.757C318.923 131.114 319.352 130.614 319.903 130.255C320.457 129.893 321.103 129.712 321.842 129.712C322.268 129.712 322.689 129.783 323.104 129.925C323.52 130.067 323.898 130.298 324.239 130.617C324.58 130.933 324.851 131.352 325.054 131.874C325.256 132.396 325.357 133.039 325.357 133.803V134.335H319.051V133.249H324.079C324.079 132.787 323.987 132.375 323.802 132.013C323.621 131.651 323.362 131.365 323.024 131.155C322.691 130.946 322.296 130.841 321.842 130.841C321.341 130.841 320.908 130.965 320.542 131.214C320.18 131.459 319.901 131.778 319.706 132.173C319.51 132.567 319.413 132.989 319.413 133.44V134.165C319.413 134.783 319.519 135.306 319.732 135.736C319.949 136.162 320.249 136.487 320.633 136.711C321.016 136.931 321.462 137.041 321.97 137.041C322.3 137.041 322.598 136.995 322.865 136.903C323.134 136.807 323.367 136.665 323.562 136.477C323.758 136.285 323.909 136.047 324.015 135.763L325.23 136.104C325.102 136.516 324.887 136.878 324.585 137.19C324.283 137.499 323.91 137.741 323.466 137.915C323.023 138.085 322.524 138.17 321.97 138.17ZM327.27 138V129.818H328.484V131.054H328.569C328.719 130.649 328.988 130.321 329.379 130.069C329.77 129.816 330.21 129.69 330.7 129.69C330.792 129.69 330.908 129.692 331.046 129.696C331.185 129.699 331.29 129.705 331.361 129.712V130.99C331.318 130.979 331.22 130.963 331.068 130.942C330.919 130.917 330.76 130.905 330.594 130.905C330.196 130.905 329.841 130.988 329.528 131.155C329.219 131.319 328.974 131.546 328.793 131.837C328.616 132.125 328.527 132.453 328.527 132.822V138H327.27ZM338.923 138L336.43 129.818H337.751L339.52 136.082H339.605L341.352 129.818H342.695L344.42 136.061H344.506L346.274 129.818H347.595L345.102 138H343.866L342.077 131.714H341.949L340.159 138H338.923ZM350.514 133.078V138H349.257V127.091H350.514V131.097H350.621C350.812 130.674 351.1 130.338 351.484 130.09C351.871 129.838 352.386 129.712 353.028 129.712C353.586 129.712 354.074 129.824 354.493 130.047C354.912 130.267 355.237 130.607 355.468 131.065C355.702 131.519 355.82 132.098 355.82 132.801V138H354.562V132.886C354.562 132.237 354.394 131.734 354.056 131.379C353.723 131.02 353.259 130.841 352.666 130.841C352.254 130.841 351.885 130.928 351.558 131.102C351.235 131.276 350.979 131.53 350.791 131.864C350.606 132.197 350.514 132.602 350.514 133.078ZM361.55 138.17C360.761 138.17 360.081 137.996 359.51 137.648C358.941 137.297 358.503 136.807 358.194 136.178C357.888 135.546 357.736 134.811 357.736 133.973C357.736 133.135 357.888 132.396 358.194 131.757C358.503 131.114 358.933 130.614 359.483 130.255C360.037 129.893 360.683 129.712 361.422 129.712C361.848 129.712 362.269 129.783 362.684 129.925C363.1 130.067 363.478 130.298 363.819 130.617C364.16 130.933 364.431 131.352 364.634 131.874C364.836 132.396 364.938 133.039 364.938 133.803V134.335H358.631V133.249H363.659C363.659 132.787 363.567 132.375 363.382 132.013C363.201 131.651 362.942 131.365 362.604 131.155C362.271 130.946 361.876 130.841 361.422 130.841C360.921 130.841 360.488 130.965 360.122 131.214C359.76 131.459 359.481 131.778 359.286 132.173C359.091 132.567 358.993 132.989 358.993 133.44V134.165C358.993 134.783 359.099 135.306 359.312 135.736C359.529 136.162 359.829 136.487 360.213 136.711C360.596 136.931 361.042 137.041 361.55 137.041C361.88 137.041 362.178 136.995 362.445 136.903C362.714 136.807 362.947 136.665 363.142 136.477C363.338 136.285 363.489 136.047 363.595 135.763L364.81 136.104C364.682 136.516 364.467 136.878 364.165 137.19C363.863 137.499 363.49 137.741 363.047 137.915C362.603 138.085 362.104 138.17 361.55 138.17ZM368.107 133.078V138H366.85V129.818H368.064V131.097H368.171C368.363 130.681 368.654 130.347 369.044 130.095C369.435 129.839 369.939 129.712 370.557 129.712C371.111 129.712 371.596 129.825 372.011 130.053C372.427 130.276 372.75 130.617 372.981 131.075C373.212 131.53 373.327 132.105 373.327 132.801V138H372.07V132.886C372.07 132.244 371.903 131.743 371.569 131.384C371.235 131.022 370.777 130.841 370.195 130.841C369.794 130.841 369.435 130.928 369.119 131.102C368.806 131.276 368.56 131.53 368.379 131.864C368.197 132.197 368.107 132.602 368.107 133.078ZM381.697 138L379.204 129.818H380.525L382.293 136.082H382.378L384.126 129.818H385.468L387.194 136.061H387.279L389.047 129.818H390.369L387.876 138H386.64L384.85 131.714H384.722L382.932 138H381.697ZM395.076 138.17C394.337 138.17 393.689 137.995 393.132 137.643C392.578 137.292 392.145 136.8 391.832 136.168C391.523 135.536 391.369 134.797 391.369 133.952C391.369 133.099 391.523 132.355 391.832 131.72C392.145 131.084 392.578 130.591 393.132 130.239C393.689 129.887 394.337 129.712 395.076 129.712C395.815 129.712 396.461 129.887 397.015 130.239C397.572 130.591 398.006 131.084 398.315 131.72C398.627 132.355 398.783 133.099 398.783 133.952C398.783 134.797 398.627 135.536 398.315 136.168C398.006 136.8 397.572 137.292 397.015 137.643C396.461 137.995 395.815 138.17 395.076 138.17ZM395.076 137.041C395.637 137.041 396.099 136.897 396.461 136.61C396.823 136.322 397.091 135.944 397.265 135.475C397.439 135.006 397.526 134.499 397.526 133.952C397.526 133.405 397.439 132.895 397.265 132.423C397.091 131.951 396.823 131.569 396.461 131.278C396.099 130.987 395.637 130.841 395.076 130.841C394.515 130.841 394.053 130.987 393.691 131.278C393.329 131.569 393.061 131.951 392.887 132.423C392.713 132.895 392.626 133.405 392.626 133.952C392.626 134.499 392.713 135.006 392.887 135.475C393.061 135.944 393.329 136.322 393.691 136.61C394.053 136.897 394.515 137.041 395.076 137.041ZM400.702 138V129.818H401.917V131.054H402.002C402.151 130.649 402.421 130.321 402.812 130.069C403.202 129.816 403.643 129.69 404.133 129.69C404.225 129.69 404.34 129.692 404.479 129.696C404.617 129.699 404.722 129.705 404.793 129.712V130.99C404.751 130.979 404.653 130.963 404.5 130.942C404.351 130.917 404.193 130.905 404.026 130.905C403.628 130.905 403.273 130.988 402.961 131.155C402.652 131.319 402.407 131.546 402.226 131.837C402.048 132.125 401.959 132.453 401.959 132.822V138H400.702ZM407.455 135.017L407.434 133.462H407.69L411.269 129.818H412.825L409.011 133.675H408.904L407.455 135.017ZM406.283 138V127.091H407.54V138H406.283ZM411.482 138L408.286 133.952L409.181 133.078L413.08 138H411.482ZM419.918 133.078V138H418.661V127.091H419.918V131.097H420.025C420.217 130.674 420.504 130.338 420.888 130.09C421.275 129.838 421.79 129.712 422.433 129.712C422.99 129.712 423.478 129.824 423.897 130.047C424.316 130.267 424.641 130.607 424.872 131.065C425.107 131.519 425.224 132.098 425.224 132.801V138H423.967V132.886C423.967 132.237 423.798 131.734 423.461 131.379C423.127 131.02 422.663 130.841 422.07 130.841C421.658 130.841 421.289 130.928 420.962 131.102C420.639 131.276 420.384 131.53 420.195 131.864C420.011 132.197 419.918 132.602 419.918 133.078ZM429.931 138.192C429.413 138.192 428.942 138.094 428.52 137.899C428.097 137.7 427.762 137.414 427.513 137.041C427.264 136.665 427.14 136.21 427.14 135.678C427.14 135.209 427.232 134.829 427.417 134.538C427.602 134.243 427.849 134.012 428.157 133.845C428.466 133.678 428.807 133.554 429.18 133.472C429.557 133.387 429.935 133.32 430.315 133.27C430.812 133.206 431.215 133.158 431.524 133.126C431.836 133.091 432.064 133.032 432.206 132.95C432.351 132.869 432.424 132.727 432.424 132.524V132.482C432.424 131.956 432.28 131.548 431.993 131.256C431.709 130.965 431.277 130.82 430.698 130.82C430.098 130.82 429.628 130.951 429.287 131.214C428.946 131.477 428.706 131.757 428.568 132.055L427.374 131.629C427.588 131.132 427.872 130.745 428.227 130.468C428.585 130.187 428.976 129.992 429.399 129.882C429.825 129.768 430.244 129.712 430.656 129.712C430.919 129.712 431.22 129.744 431.561 129.808C431.906 129.868 432.238 129.994 432.557 130.186C432.881 130.377 433.149 130.667 433.362 131.054C433.575 131.441 433.681 131.96 433.681 132.609V138H432.424V136.892H432.36C432.275 137.07 432.133 137.26 431.934 137.462C431.735 137.664 431.471 137.837 431.14 137.979C430.81 138.121 430.407 138.192 429.931 138.192ZM430.123 137.062C430.62 137.062 431.039 136.965 431.38 136.77C431.725 136.574 431.984 136.322 432.158 136.013C432.335 135.704 432.424 135.379 432.424 135.038V133.888C432.371 133.952 432.254 134.01 432.073 134.064C431.895 134.113 431.689 134.158 431.455 134.197C431.224 134.232 430.998 134.264 430.778 134.293C430.562 134.317 430.386 134.339 430.251 134.357C429.924 134.399 429.619 134.468 429.335 134.564C429.054 134.657 428.827 134.797 428.653 134.985C428.482 135.17 428.397 135.422 428.397 135.741C428.397 136.178 428.559 136.509 428.882 136.732C429.209 136.952 429.622 137.062 430.123 137.062ZM441.771 131.651L440.642 131.97C440.571 131.782 440.466 131.599 440.328 131.422C440.193 131.24 440.008 131.091 439.774 130.974C439.539 130.857 439.239 130.798 438.873 130.798C438.373 130.798 437.956 130.914 437.622 131.145C437.291 131.372 437.126 131.661 437.126 132.013C437.126 132.325 437.24 132.572 437.467 132.753C437.695 132.934 438.05 133.085 438.533 133.206L439.747 133.504C440.479 133.682 441.024 133.953 441.382 134.319C441.741 134.681 441.92 135.148 441.92 135.72C441.92 136.189 441.785 136.608 441.516 136.977C441.249 137.347 440.876 137.638 440.397 137.851C439.918 138.064 439.36 138.17 438.724 138.17C437.89 138.17 437.199 137.989 436.652 137.627C436.105 137.265 435.759 136.736 435.614 136.04L436.807 135.741C436.92 136.182 437.135 136.512 437.451 136.732C437.771 136.952 438.188 137.062 438.703 137.062C439.289 137.062 439.754 136.938 440.099 136.69C440.447 136.437 440.621 136.136 440.621 135.784C440.621 135.5 440.521 135.262 440.322 135.07C440.123 134.875 439.818 134.729 439.406 134.634L438.043 134.314C437.293 134.136 436.743 133.861 436.391 133.488C436.043 133.112 435.869 132.641 435.869 132.077C435.869 131.615 435.999 131.207 436.258 130.852C436.521 130.496 436.878 130.218 437.329 130.015C437.783 129.813 438.298 129.712 438.873 129.712C439.683 129.712 440.319 129.889 440.78 130.244C441.246 130.599 441.576 131.068 441.771 131.651ZM450.439 138.192C449.921 138.192 449.45 138.094 449.028 137.899C448.605 137.7 448.269 137.414 448.021 137.041C447.772 136.665 447.648 136.21 447.648 135.678C447.648 135.209 447.74 134.829 447.925 134.538C448.11 134.243 448.356 134.012 448.665 133.845C448.974 133.678 449.315 133.554 449.688 133.472C450.064 133.387 450.443 133.32 450.823 133.27C451.32 133.206 451.723 133.158 452.032 133.126C452.344 133.091 452.572 133.032 452.714 132.95C452.859 132.869 452.932 132.727 452.932 132.524V132.482C452.932 131.956 452.788 131.548 452.501 131.256C452.216 130.965 451.785 130.82 451.206 130.82C450.606 130.82 450.135 130.951 449.795 131.214C449.454 131.477 449.214 131.757 449.075 132.055L447.882 131.629C448.095 131.132 448.379 130.745 448.735 130.468C449.093 130.187 449.484 129.992 449.906 129.882C450.333 129.768 450.752 129.712 451.164 129.712C451.426 129.712 451.728 129.744 452.069 129.808C452.414 129.868 452.746 129.994 453.065 130.186C453.388 130.377 453.656 130.667 453.869 131.054C454.083 131.441 454.189 131.96 454.189 132.609V138H452.932V136.892H452.868C452.783 137.07 452.641 137.26 452.442 137.462C452.243 137.664 451.979 137.837 451.648 137.979C451.318 138.121 450.915 138.192 450.439 138.192ZM450.631 137.062C451.128 137.062 451.547 136.965 451.888 136.77C452.232 136.574 452.492 136.322 452.666 136.013C452.843 135.704 452.932 135.379 452.932 135.038V133.888C452.879 133.952 452.762 134.01 452.58 134.064C452.403 134.113 452.197 134.158 451.963 134.197C451.732 134.232 451.506 134.264 451.286 134.293C451.069 134.317 450.894 134.339 450.759 134.357C450.432 134.399 450.127 134.468 449.843 134.564C449.562 134.657 449.335 134.797 449.161 134.985C448.99 135.17 448.905 135.422 448.905 135.741C448.905 136.178 449.067 136.509 449.39 136.732C449.716 136.952 450.13 137.062 450.631 137.062ZM464.026 138.17C463.259 138.17 462.599 137.989 462.045 137.627C461.491 137.265 461.065 136.766 460.766 136.13C460.468 135.495 460.319 134.768 460.319 133.952C460.319 133.121 460.472 132.387 460.777 131.752C461.086 131.113 461.516 130.614 462.066 130.255C462.62 129.893 463.266 129.712 464.005 129.712C464.58 129.712 465.099 129.818 465.56 130.031C466.022 130.244 466.4 130.543 466.695 130.926C466.99 131.31 467.172 131.757 467.244 132.268H465.986C465.891 131.896 465.677 131.565 465.347 131.278C465.021 130.987 464.58 130.841 464.026 130.841C463.536 130.841 463.106 130.969 462.737 131.224C462.371 131.477 462.085 131.833 461.88 132.295C461.677 132.753 461.576 133.291 461.576 133.909C461.576 134.541 461.675 135.092 461.874 135.56C462.077 136.029 462.361 136.393 462.726 136.652C463.096 136.912 463.529 137.041 464.026 137.041C464.353 137.041 464.649 136.984 464.916 136.871C465.182 136.757 465.408 136.594 465.592 136.381C465.777 136.168 465.908 135.912 465.986 135.614H467.244C467.172 136.097 466.997 136.532 466.716 136.919C466.439 137.302 466.072 137.608 465.614 137.835C465.159 138.059 464.63 138.17 464.026 138.17ZM470.338 127.091V138H469.081V127.091H470.338ZM476.071 138.17C475.283 138.17 474.603 137.996 474.031 137.648C473.463 137.297 473.024 136.807 472.715 136.178C472.41 135.546 472.257 134.811 472.257 133.973C472.257 133.135 472.41 132.396 472.715 131.757C473.024 131.114 473.454 130.614 474.004 130.255C474.558 129.893 475.205 129.712 475.943 129.712C476.369 129.712 476.79 129.783 477.206 129.925C477.621 130.067 477.999 130.298 478.34 130.617C478.681 130.933 478.953 131.352 479.155 131.874C479.358 132.396 479.459 133.039 479.459 133.803V134.335H473.152V133.249H478.181C478.181 132.787 478.088 132.375 477.904 132.013C477.722 131.651 477.463 131.365 477.126 131.155C476.792 130.946 476.398 130.841 475.943 130.841C475.443 130.841 475.009 130.965 474.644 131.214C474.281 131.459 474.003 131.778 473.807 132.173C473.612 132.567 473.514 132.989 473.514 133.44V134.165C473.514 134.783 473.621 135.306 473.834 135.736C474.051 136.162 474.351 136.487 474.734 136.711C475.118 136.931 475.563 137.041 476.071 137.041C476.401 137.041 476.7 136.995 476.966 136.903C477.236 136.807 477.469 136.665 477.664 136.477C477.859 136.285 478.01 136.047 478.117 135.763L479.331 136.104C479.203 136.516 478.988 136.878 478.687 137.19C478.385 137.499 478.012 137.741 477.568 137.915C477.124 138.085 476.625 138.17 476.071 138.17ZM483.779 138.192C483.26 138.192 482.79 138.094 482.367 137.899C481.945 137.7 481.609 137.414 481.361 137.041C481.112 136.665 480.988 136.21 480.988 135.678C480.988 135.209 481.08 134.829 481.265 134.538C481.449 134.243 481.696 134.012 482.005 133.845C482.314 133.678 482.655 133.554 483.028 133.472C483.404 133.387 483.782 133.32 484.162 133.27C484.66 133.206 485.063 133.158 485.372 133.126C485.684 133.091 485.911 133.032 486.053 132.95C486.199 132.869 486.272 132.727 486.272 132.524V132.482C486.272 131.956 486.128 131.548 485.84 131.256C485.556 130.965 485.125 130.82 484.546 130.82C483.946 130.82 483.475 130.951 483.134 131.214C482.794 131.477 482.554 131.757 482.415 132.055L481.222 131.629C481.435 131.132 481.719 130.745 482.074 130.468C482.433 130.187 482.824 129.992 483.246 129.882C483.672 129.768 484.091 129.712 484.503 129.712C484.766 129.712 485.068 129.744 485.409 129.808C485.753 129.868 486.085 129.994 486.405 130.186C486.728 130.377 486.996 130.667 487.209 131.054C487.422 131.441 487.529 131.96 487.529 132.609V138H486.272V136.892H486.208C486.123 137.07 485.981 137.26 485.782 137.462C485.583 137.664 485.318 137.837 484.988 137.979C484.658 138.121 484.255 138.192 483.779 138.192ZM483.971 137.062C484.468 137.062 484.887 136.965 485.228 136.77C485.572 136.574 485.831 136.322 486.006 136.013C486.183 135.704 486.272 135.379 486.272 135.038V133.888C486.219 133.952 486.101 134.01 485.92 134.064C485.743 134.113 485.537 134.158 485.302 134.197C485.072 134.232 484.846 134.264 484.626 134.293C484.409 134.317 484.233 134.339 484.099 134.357C483.772 134.399 483.466 134.468 483.182 134.564C482.902 134.657 482.675 134.797 482.501 134.985C482.33 135.17 482.245 135.422 482.245 135.741C482.245 136.178 482.406 136.509 482.73 136.732C483.056 136.952 483.47 137.062 483.971 137.062ZM489.823 138V129.818H491.038V131.054H491.123C491.272 130.649 491.542 130.321 491.933 130.069C492.323 129.816 492.764 129.69 493.254 129.69C493.346 129.69 493.462 129.692 493.6 129.696C493.739 129.699 493.843 129.705 493.914 129.712V130.99C493.872 130.979 493.774 130.963 493.621 130.942C493.472 130.917 493.314 130.905 493.147 130.905C492.75 130.905 492.394 130.988 492.082 131.155C491.773 131.319 491.528 131.546 491.347 131.837C491.169 132.125 491.081 132.453 491.081 132.822V138H489.823ZM503.267 129.818V130.884H498.856V129.818H503.267ZM500.177 138V128.689C500.177 128.22 500.287 127.83 500.507 127.517C500.728 127.205 501.013 126.97 501.365 126.814C501.717 126.658 502.088 126.58 502.478 126.58C502.787 126.58 503.039 126.604 503.235 126.654C503.43 126.704 503.576 126.75 503.672 126.793L503.309 127.879C503.245 127.858 503.157 127.831 503.043 127.799C502.933 127.767 502.787 127.751 502.606 127.751C502.191 127.751 501.891 127.856 501.706 128.066C501.525 128.275 501.434 128.582 501.434 128.987V138H500.177ZM506.286 127.091V138H505.028V127.091H506.286ZM511.912 138.17C511.173 138.17 510.525 137.995 509.968 137.643C509.414 137.292 508.98 136.8 508.668 136.168C508.359 135.536 508.205 134.797 508.205 133.952C508.205 133.099 508.359 132.355 508.668 131.72C508.98 131.084 509.414 130.591 509.968 130.239C510.525 129.887 511.173 129.712 511.912 129.712C512.651 129.712 513.297 129.887 513.851 130.239C514.408 130.591 514.842 131.084 515.151 131.72C515.463 132.355 515.619 133.099 515.619 133.952C515.619 134.797 515.463 135.536 515.151 136.168C514.842 136.8 514.408 137.292 513.851 137.643C513.297 137.995 512.651 138.17 511.912 138.17ZM511.912 137.041C512.473 137.041 512.935 136.897 513.297 136.61C513.659 136.322 513.927 135.944 514.101 135.475C514.275 135.006 514.362 134.499 514.362 133.952C514.362 133.405 514.275 132.895 514.101 132.423C513.927 131.951 513.659 131.569 513.297 131.278C512.935 130.987 512.473 130.841 511.912 130.841C511.351 130.841 510.889 130.987 510.527 131.278C510.165 131.569 509.897 131.951 509.723 132.423C509.549 132.895 509.462 133.405 509.462 133.952C509.462 134.499 509.549 135.006 509.723 135.475C509.897 135.944 510.165 136.322 510.527 136.61C510.889 136.897 511.351 137.041 511.912 137.041ZM519.114 138L516.621 129.818H517.942L519.71 136.082H519.795L521.543 129.818H522.885L524.611 136.061H524.696L526.464 129.818H527.786L525.293 138H524.057L522.267 131.714H522.139L520.349 138H519.114ZM529.25 138.085C528.988 138.085 528.762 137.991 528.574 137.803C528.386 137.615 528.292 137.389 528.292 137.126C528.292 136.864 528.386 136.638 528.574 136.45C528.762 136.262 528.988 136.168 529.25 136.168C529.513 136.168 529.739 136.262 529.927 136.45C530.115 136.638 530.209 136.864 530.209 137.126C530.209 137.3 530.165 137.46 530.076 137.606C529.991 137.751 529.875 137.869 529.73 137.957C529.588 138.043 529.428 138.085 529.25 138.085Z" fill="#666E80"/>
</g>
</g>
<rect x="684" y="78.5" width="178" height="35" rx="17.5" fill="#EDF0FC"/>
<path d="M702.959 100.5V91.7727H708.371V92.9062H704.276V95.5653H707.983V96.6946H704.276V100.5H702.959ZM715.629 99.0341V93.2727H716.775V99.0341H715.629ZM713.324 96.7244V95.5824H719.085V96.7244H713.324ZM727.287 93.9545V94.9773H723.712V93.9545H727.287ZM724.67 92.3864H725.945V98.5781C725.945 98.8253 725.982 99.0114 726.055 99.1364C726.129 99.2585 726.224 99.3423 726.341 99.3878C726.46 99.4304 726.589 99.4517 726.729 99.4517C726.831 99.4517 726.92 99.4446 726.997 99.4304C727.074 99.4162 727.134 99.4048 727.176 99.3963L727.406 100.449C727.332 100.477 727.227 100.506 727.091 100.534C726.955 100.565 726.784 100.582 726.58 100.585C726.244 100.591 725.932 100.531 725.642 100.406C725.352 100.281 725.118 100.088 724.939 99.8267C724.76 99.5653 724.67 99.2372 724.67 98.8423V92.3864ZM730.601 100.645C730.186 100.645 729.811 100.568 729.476 100.415C729.141 100.259 728.875 100.033 728.679 99.7372C728.486 99.4418 728.39 99.0795 728.39 98.6506C728.39 98.2812 728.461 97.9773 728.603 97.7386C728.745 97.5 728.936 97.3111 729.178 97.1719C729.419 97.0327 729.689 96.9276 729.988 96.8565C730.286 96.7855 730.59 96.7315 730.9 96.6946C731.292 96.6491 731.61 96.6122 731.854 96.5838C732.098 96.5526 732.276 96.5028 732.387 96.4347C732.498 96.3665 732.553 96.2557 732.553 96.1023V96.0724C732.553 95.7003 732.448 95.4119 732.238 95.2074C732.03 95.0028 731.721 94.9006 731.309 94.9006C730.88 94.9006 730.542 94.9957 730.294 95.1861C730.05 95.3736 729.881 95.5824 729.787 95.8125L728.59 95.5398C728.732 95.142 728.939 94.821 729.212 94.5767C729.488 94.3295 729.804 94.1506 730.162 94.0398C730.52 93.9261 730.897 93.8693 731.292 93.8693C731.553 93.8693 731.83 93.9006 732.123 93.9631C732.418 94.0227 732.694 94.1335 732.949 94.2955C733.208 94.4574 733.419 94.6889 733.584 94.9901C733.749 95.2884 733.831 95.6761 733.831 96.1534V100.5H732.587V99.6051H732.536C732.453 99.7699 732.33 99.9318 732.165 100.091C732 100.25 731.789 100.382 731.53 100.487C731.272 100.592 730.962 100.645 730.601 100.645ZM730.878 99.6222C731.23 99.6222 731.532 99.5526 731.782 99.4134C732.034 99.2741 732.226 99.0923 732.357 98.8679C732.49 98.6406 732.557 98.3977 732.557 98.1392V97.2955C732.512 97.3409 732.424 97.3835 732.293 97.4233C732.165 97.4602 732.019 97.4929 731.854 97.5213C731.689 97.5469 731.529 97.571 731.373 97.5938C731.216 97.6136 731.086 97.6307 730.98 97.6449C730.733 97.6761 730.507 97.7287 730.303 97.8026C730.101 97.8764 729.939 97.983 729.817 98.1222C729.698 98.2585 729.638 98.4403 729.638 98.6676C729.638 98.983 729.755 99.2216 729.988 99.3835C730.221 99.5426 730.517 99.6222 730.878 99.6222ZM740.433 95.5526L739.278 95.7571C739.23 95.6094 739.153 95.4687 739.048 95.3352C738.946 95.2017 738.807 95.0923 738.631 95.0071C738.455 94.9219 738.234 94.8793 737.97 94.8793C737.609 94.8793 737.308 94.9602 737.067 95.1222C736.825 95.2812 736.705 95.4872 736.705 95.7401C736.705 95.9588 736.786 96.1349 736.947 96.2685C737.109 96.402 737.371 96.5114 737.732 96.5966L738.771 96.8352C739.374 96.9744 739.822 97.1889 740.118 97.4787C740.413 97.7685 740.561 98.1449 740.561 98.608C740.561 99 740.447 99.3494 740.22 99.6562C739.996 99.9602 739.682 100.199 739.278 100.372C738.878 100.545 738.413 100.632 737.885 100.632C737.152 100.632 736.554 100.476 736.091 100.163C735.628 99.848 735.344 99.4006 735.239 98.821L736.47 98.6335C736.547 98.9545 736.705 99.1974 736.943 99.3622C737.182 99.5241 737.493 99.6051 737.876 99.6051C738.294 99.6051 738.628 99.5185 738.878 99.3452C739.128 99.169 739.253 98.9545 739.253 98.7017C739.253 98.4972 739.176 98.3253 739.023 98.1861C738.872 98.0469 738.641 97.9418 738.328 97.8707L737.22 97.6278C736.609 97.4886 736.158 97.267 735.865 96.9631C735.575 96.6591 735.43 96.2741 735.43 95.8082C735.43 95.4219 735.538 95.0838 735.754 94.794C735.97 94.5043 736.268 94.2784 736.649 94.1165C737.03 93.9517 737.466 93.8693 737.957 93.8693C738.665 93.8693 739.222 94.0227 739.628 94.3295C740.034 94.6335 740.303 95.0412 740.433 95.5526ZM743.134 98.2798L743.125 96.7244H743.347L745.955 93.9545H747.48L744.506 97.108H744.306L743.134 98.2798ZM741.962 100.5V91.7727H743.236V100.5H741.962ZM746.096 100.5L743.752 97.3892L744.63 96.4986L747.659 100.5H746.096ZM751.817 100.5V93.9545H753.049V94.9943H753.117C753.237 94.642 753.447 94.3651 753.748 94.1634C754.052 93.9588 754.396 93.8565 754.779 93.8565C754.859 93.8565 754.952 93.8594 755.06 93.8651C755.171 93.8707 755.258 93.8778 755.32 93.8864V95.1051C755.269 95.0909 755.178 95.0753 755.048 95.0582C754.917 95.0384 754.786 95.0284 754.656 95.0284C754.354 95.0284 754.086 95.0923 753.85 95.2202C753.617 95.3452 753.433 95.5199 753.296 95.7443C753.16 95.9659 753.092 96.2187 753.092 96.5028V100.5H751.817ZM758.946 100.632C758.332 100.632 757.797 100.491 757.339 100.21C756.882 99.929 756.527 99.5355 756.274 99.0298C756.021 98.5241 755.895 97.9332 755.895 97.2571C755.895 96.5781 756.021 95.9844 756.274 95.4759C756.527 94.9673 756.882 94.5724 757.339 94.2912C757.797 94.0099 758.332 93.8693 758.946 93.8693C759.559 93.8693 760.095 94.0099 760.552 94.2912C761.01 94.5724 761.365 94.9673 761.618 95.4759C761.87 95.9844 761.997 96.5781 761.997 97.2571C761.997 97.9332 761.87 98.5241 761.618 99.0298C761.365 99.5355 761.01 99.929 760.552 100.21C760.095 100.491 759.559 100.632 758.946 100.632ZM758.95 99.5625C759.348 99.5625 759.677 99.4574 759.939 99.2472C760.2 99.0369 760.393 98.7571 760.518 98.4077C760.646 98.0582 760.71 97.6733 760.71 97.2528C760.71 96.8352 760.646 96.4517 760.518 96.1023C760.393 95.75 760.2 95.4673 759.939 95.2543C759.677 95.0412 759.348 94.9347 758.95 94.9347C758.549 94.9347 758.217 95.0412 757.953 95.2543C757.691 95.4673 757.497 95.75 757.369 96.1023C757.244 96.4517 757.181 96.8352 757.181 97.2528C757.181 97.6733 757.244 98.0582 757.369 98.4077C757.497 98.7571 757.691 99.0369 757.953 99.2472C758.217 99.4574 758.549 99.5625 758.95 99.5625ZM764.639 100.5L762.713 93.9545H764.029L765.312 98.7614H765.376L766.663 93.9545H767.98L769.258 98.7401H769.322L770.596 93.9545H771.913L769.991 100.5H768.691L767.362 95.7741H767.264L765.934 100.5H764.639ZM778.027 95.5526L776.872 95.7571C776.824 95.6094 776.747 95.4687 776.642 95.3352C776.54 95.2017 776.401 95.0923 776.224 95.0071C776.048 94.9219 775.828 94.8793 775.564 94.8793C775.203 94.8793 774.902 94.9602 774.661 95.1222C774.419 95.2812 774.298 95.4872 774.298 95.7401C774.298 95.9588 774.379 96.1349 774.541 96.2685C774.703 96.402 774.964 96.5114 775.325 96.5966L776.365 96.8352C776.967 96.9744 777.416 97.1889 777.712 97.4787C778.007 97.7685 778.155 98.1449 778.155 98.608C778.155 99 778.041 99.3494 777.814 99.6562C777.589 99.9602 777.276 100.199 776.872 100.372C776.472 100.545 776.007 100.632 775.479 100.632C774.746 100.632 774.148 100.476 773.685 100.163C773.222 99.848 772.938 99.4006 772.832 98.821L774.064 98.6335C774.141 98.9545 774.298 99.1974 774.537 99.3622C774.776 99.5241 775.087 99.6051 775.47 99.6051C775.888 99.6051 776.222 99.5185 776.472 99.3452C776.722 99.169 776.847 98.9545 776.847 98.7017C776.847 98.4972 776.77 98.3253 776.616 98.1861C776.466 98.0469 776.234 97.9418 775.922 97.8707L774.814 97.6278C774.203 97.4886 773.751 97.267 773.459 96.9631C773.169 96.6591 773.024 96.2741 773.024 95.8082C773.024 95.4219 773.132 95.0838 773.348 94.794C773.564 94.5043 773.862 94.2784 774.243 94.1165C774.624 93.9517 775.06 93.8693 775.551 93.8693C776.259 93.8693 776.815 94.0227 777.222 94.3295C777.628 94.6335 777.896 95.0412 778.027 95.5526ZM783.141 96.3111V95.1903H788.599V96.3111H783.141ZM783.141 98.9361V97.8153H788.599V98.9361H783.141ZM793.9 102.955V93.9545H795.144V95.0156H795.25C795.324 94.8793 795.431 94.7216 795.57 94.5426C795.709 94.3636 795.902 94.2074 796.15 94.0739C796.397 93.9375 796.723 93.8693 797.13 93.8693C797.658 93.8693 798.13 94.0028 798.544 94.2699C798.959 94.5369 799.284 94.9219 799.52 95.4247C799.759 95.9276 799.878 96.5327 799.878 97.2401C799.878 97.9474 799.76 98.554 799.525 99.0597C799.289 99.5625 798.965 99.9503 798.553 100.223C798.141 100.493 797.671 100.628 797.142 100.628C796.745 100.628 796.419 100.561 796.167 100.428C795.917 100.294 795.721 100.138 795.578 99.9588C795.436 99.7798 795.327 99.6207 795.25 99.4815H795.174V102.955H793.9ZM795.148 97.2273C795.148 97.6875 795.215 98.0909 795.348 98.4375C795.482 98.7841 795.675 99.0554 795.928 99.2514C796.181 99.4446 796.49 99.5412 796.857 99.5412C797.238 99.5412 797.556 99.4403 797.811 99.2386C798.067 99.0341 798.26 98.7571 798.391 98.4077C798.525 98.0582 798.591 97.6648 798.591 97.2273C798.591 96.7955 798.526 96.4077 798.395 96.0639C798.267 95.7202 798.074 95.4489 797.816 95.25C797.56 95.0511 797.24 94.9517 796.857 94.9517C796.488 94.9517 796.175 95.0469 795.919 95.2372C795.667 95.4276 795.475 95.6932 795.344 96.0341C795.213 96.375 795.148 96.7727 795.148 97.2273ZM801.306 100.5V93.9545H802.537V94.9943H802.605C802.725 94.642 802.935 94.3651 803.236 94.1634C803.54 93.9588 803.884 93.8565 804.267 93.8565C804.347 93.8565 804.441 93.8594 804.549 93.8651C804.659 93.8707 804.746 93.8778 804.809 93.8864V95.1051C804.757 95.0909 804.667 95.0753 804.536 95.0582C804.405 95.0384 804.275 95.0284 804.144 95.0284C803.843 95.0284 803.574 95.0923 803.338 95.2202C803.105 95.3452 802.921 95.5199 802.784 95.7443C802.648 95.9659 802.58 96.2187 802.58 96.5028V100.5H801.306ZM808.434 100.632C807.82 100.632 807.285 100.491 806.827 100.21C806.37 99.929 806.015 99.5355 805.762 99.0298C805.509 98.5241 805.383 97.9332 805.383 97.2571C805.383 96.5781 805.509 95.9844 805.762 95.4759C806.015 94.9673 806.37 94.5724 806.827 94.2912C807.285 94.0099 807.82 93.8693 808.434 93.8693C809.048 93.8693 809.583 94.0099 810.04 94.2912C810.498 94.5724 810.853 94.9673 811.106 95.4759C811.359 95.9844 811.485 96.5781 811.485 97.2571C811.485 97.9332 811.359 98.5241 811.106 99.0298C810.853 99.5355 810.498 99.929 810.04 100.21C809.583 100.491 809.048 100.632 808.434 100.632ZM808.438 99.5625C808.836 99.5625 809.165 99.4574 809.427 99.2472C809.688 99.0369 809.881 98.7571 810.006 98.4077C810.134 98.0582 810.198 97.6733 810.198 97.2528C810.198 96.8352 810.134 96.4517 810.006 96.1023C809.881 95.75 809.688 95.4673 809.427 95.2543C809.165 95.0412 808.836 94.9347 808.438 94.9347C808.038 94.9347 807.705 95.0412 807.441 95.2543C807.18 95.4673 806.985 95.75 806.857 96.1023C806.732 96.4517 806.67 96.8352 806.67 97.2528C806.67 97.6733 806.732 98.0582 806.857 98.4077C806.985 98.7571 807.18 99.0369 807.441 99.2472C807.705 99.4574 808.038 99.5625 808.438 99.5625ZM815.652 103.091C815.132 103.091 814.684 103.023 814.309 102.886C813.937 102.75 813.633 102.57 813.397 102.345C813.162 102.121 812.985 101.875 812.869 101.608L813.964 101.156C814.041 101.281 814.143 101.413 814.271 101.553C814.402 101.695 814.578 101.815 814.799 101.915C815.024 102.014 815.312 102.064 815.664 102.064C816.147 102.064 816.547 101.946 816.862 101.71C817.177 101.477 817.335 101.105 817.335 100.594V99.3068H817.254C817.177 99.446 817.066 99.6009 816.922 99.7713C816.779 99.9418 816.583 100.089 816.333 100.214C816.083 100.339 815.758 100.402 815.358 100.402C814.841 100.402 814.375 100.281 813.96 100.04C813.548 99.7955 813.221 99.4361 812.98 98.9616C812.741 98.4844 812.622 97.8977 812.622 97.2017C812.622 96.5057 812.74 95.9091 812.975 95.4119C813.214 94.9148 813.541 94.5341 813.956 94.2699C814.37 94.0028 814.841 93.8693 815.366 93.8693C815.772 93.8693 816.1 93.9375 816.35 94.0739C816.6 94.2074 816.795 94.3636 816.934 94.5426C817.076 94.7216 817.186 94.8793 817.262 95.0156H817.356V93.9545H818.605V100.645C818.605 101.207 818.474 101.669 818.213 102.03C817.951 102.391 817.598 102.658 817.152 102.831C816.708 103.004 816.208 103.091 815.652 103.091ZM815.639 99.3452C816.005 99.3452 816.315 99.2599 816.568 99.0895C816.824 98.9162 817.017 98.669 817.147 98.348C817.281 98.0241 817.348 97.6364 817.348 97.1847C817.348 96.7443 817.282 96.3565 817.152 96.0213C817.021 95.6861 816.829 95.4247 816.576 95.2372C816.324 95.0469 816.011 94.9517 815.639 94.9517C815.255 94.9517 814.936 95.0511 814.68 95.25C814.424 95.446 814.231 95.7131 814.1 96.0511C813.973 96.3892 813.909 96.767 813.909 97.1847C813.909 97.6136 813.974 97.9901 814.105 98.3139C814.235 98.6378 814.429 98.8906 814.684 99.0724C814.943 99.2543 815.261 99.3452 815.639 99.3452ZM820.314 100.5V93.9545H821.545V94.9943H821.613C821.733 94.642 821.943 94.3651 822.244 94.1634C822.548 93.9588 822.892 93.8565 823.275 93.8565C823.355 93.8565 823.449 93.8594 823.556 93.8651C823.667 93.8707 823.754 93.8778 823.816 93.8864V95.1051C823.765 95.0909 823.674 95.0753 823.544 95.0582C823.413 95.0384 823.282 95.0284 823.152 95.0284C822.85 95.0284 822.582 95.0923 822.346 95.2202C822.113 95.3452 821.929 95.5199 821.792 95.7443C821.656 95.9659 821.588 96.2187 821.588 96.5028V100.5H820.314ZM827.506 100.632C826.861 100.632 826.305 100.494 825.839 100.219C825.376 99.9403 825.018 99.5497 824.766 99.0469C824.516 98.5412 824.391 97.9489 824.391 97.2699C824.391 96.5994 824.516 96.0085 824.766 95.4972C825.018 94.9858 825.371 94.5866 825.822 94.2997C826.277 94.0128 826.808 93.8693 827.416 93.8693C827.786 93.8693 828.143 93.9304 828.49 94.0526C828.837 94.1747 829.148 94.3665 829.423 94.6278C829.699 94.8892 829.916 95.2287 830.075 95.6463C830.234 96.0611 830.314 96.5653 830.314 97.1591V97.6108H825.111V96.6562H829.065C829.065 96.321 828.997 96.0241 828.861 95.7656C828.724 95.5043 828.533 95.2983 828.286 95.1477C828.041 94.9972 827.754 94.9219 827.425 94.9219C827.067 94.9219 826.754 95.0099 826.487 95.1861C826.223 95.3594 826.018 95.5866 825.874 95.8679C825.732 96.1463 825.661 96.4489 825.661 96.7756V97.5213C825.661 97.9588 825.737 98.331 825.891 98.6378C826.047 98.9446 826.264 99.179 826.543 99.3409C826.821 99.5 827.146 99.5795 827.518 99.5795C827.76 99.5795 827.98 99.5455 828.179 99.4773C828.378 99.4062 828.55 99.3011 828.695 99.1619C828.839 99.0227 828.95 98.8509 829.027 98.6463L830.233 98.8636C830.136 99.2187 829.963 99.5298 829.713 99.7969C829.466 100.061 829.155 100.267 828.78 100.415C828.408 100.56 827.983 100.632 827.506 100.632ZM836.632 95.5526L835.478 95.7571C835.429 95.6094 835.353 95.4687 835.248 95.3352C835.145 95.2017 835.006 95.0923 834.83 95.0071C834.654 94.9219 834.434 94.8793 834.169 94.8793C833.809 94.8793 833.507 94.9602 833.266 95.1222C833.025 95.2812 832.904 95.4872 832.904 95.7401C832.904 95.9588 832.985 96.1349 833.147 96.2685C833.309 96.402 833.57 96.5114 833.931 96.5966L834.971 96.8352C835.573 96.9744 836.022 97.1889 836.317 97.4787C836.613 97.7685 836.76 98.1449 836.76 98.608C836.76 99 836.647 99.3494 836.419 99.6562C836.195 99.9602 835.881 100.199 835.478 100.372C835.077 100.545 834.613 100.632 834.084 100.632C833.351 100.632 832.753 100.476 832.29 100.163C831.827 99.848 831.543 99.4006 831.438 98.821L832.669 98.6335C832.746 98.9545 832.904 99.1974 833.142 99.3622C833.381 99.5241 833.692 99.6051 834.076 99.6051C834.493 99.6051 834.827 99.5185 835.077 99.3452C835.327 99.169 835.452 98.9545 835.452 98.7017C835.452 98.4972 835.375 98.3253 835.222 98.1861C835.071 98.0469 834.84 97.9418 834.527 97.8707L833.419 97.6278C832.809 97.4886 832.357 97.267 832.064 96.9631C831.775 96.6591 831.63 96.2741 831.63 95.8082C831.63 95.4219 831.738 95.0838 831.953 94.794C832.169 94.5043 832.468 94.2784 832.848 94.1165C833.229 93.9517 833.665 93.8693 834.157 93.8693C834.864 93.8693 835.421 94.0227 835.827 94.3295C836.233 94.6335 836.502 95.0412 836.632 95.5526ZM843.066 95.5526L841.911 95.7571C841.863 95.6094 841.786 95.4687 841.681 95.3352C841.579 95.2017 841.44 95.0923 841.263 95.0071C841.087 94.9219 840.867 94.8793 840.603 94.8793C840.242 94.8793 839.941 94.9602 839.7 95.1222C839.458 95.2812 839.337 95.4872 839.337 95.7401C839.337 95.9588 839.418 96.1349 839.58 96.2685C839.742 96.402 840.004 96.5114 840.364 96.5966L841.404 96.8352C842.006 96.9744 842.455 97.1889 842.751 97.4787C843.046 97.7685 843.194 98.1449 843.194 98.608C843.194 99 843.08 99.3494 842.853 99.6562C842.629 99.9602 842.315 100.199 841.911 100.372C841.511 100.545 841.046 100.632 840.518 100.632C839.785 100.632 839.187 100.476 838.724 100.163C838.261 99.848 837.977 99.4006 837.871 98.821L839.103 98.6335C839.18 98.9545 839.337 99.1974 839.576 99.3622C839.815 99.5241 840.126 99.6051 840.509 99.6051C840.927 99.6051 841.261 99.5185 841.511 99.3452C841.761 99.169 841.886 98.9545 841.886 98.7017C841.886 98.4972 841.809 98.3253 841.656 98.1861C841.505 98.0469 841.273 97.9418 840.961 97.8707L839.853 97.6278C839.242 97.4886 838.79 97.267 838.498 96.9631C838.208 96.6591 838.063 96.2741 838.063 95.8082C838.063 95.4219 838.171 95.0838 838.387 94.794C838.603 94.5043 838.901 94.2784 839.282 94.1165C839.663 93.9517 840.099 93.8693 840.59 93.8693C841.298 93.8693 841.854 94.0227 842.261 94.3295C842.667 94.6335 842.935 95.0412 843.066 95.5526Z" fill="#2E3DB5"/>
<defs>
<clipPath id="clip0_1_7">
<rect width="476" height="96" fill="white" transform="translate(56 48)"/>
</clipPath>
<clipPath id="clip1_1_7">
<rect width="348" height="92" fill="white" transform="translate(184 50)"/>
</clipPath>
</defs>
</svg>
